<svg width="16" height="16" viewBox="0 0 16 16" fill="none" xmlns="http://www.w3.org/2000/svg">
<path d="M13.6133 8.24661C14.1933 8.47994 14.5533 9.16661 14.42 9.77327L14.1467 11.0133C13.6733 13.1466 12 14.6666 9.58667 14.6666H6.41332C3.99999 14.6666 2.32666 13.1466 1.85333 11.0133L1.57999 9.77327C1.44666 9.16661 1.80665 8.47994 2.38665 8.24661L3.33333 7.86661L7.00667 6.39329C7.64667 6.13996 8.35334 6.13996 8.99334 6.39329L12.6667 7.86661L13.6133 8.24661Z" stroke="white" stroke-linecap="round" stroke-linejoin="round"/>
<path d="M8 14.6667V6.66667" stroke="white" stroke-linecap="round" stroke-linejoin="round"/>
<path d="M12.6667 5.33333V7.86666L8.99334 6.39333C8.35334 6.13999 7.64668 6.13999 7.00668 6.39333L3.33334 7.86666V5.33333C3.33334 4.23333 4.23334 3.33333 5.33334 3.33333H10.6667C11.7667 3.33333 12.6667 4.23333 12.6667 5.33333Z" stroke="white" stroke-linecap="round" stroke-linejoin="round"/>
<path d="M9.66668 3.33333H6.33334V1.99999C6.33334 1.63333 6.63334 1.33333 7.00001 1.33333H9.00001C9.36668 1.33333 9.66668 1.63333 9.66668 1.99999V3.33333Z" stroke="white" stroke-linecap="round" stroke-linejoin="round"/>
</svg>
