<svg width="27" height="26" viewBox="0 0 27 26" fill="none" xmlns="http://www.w3.org/2000/svg">
<g clip-path="url(#clip0_17_719)">
<path fill-rule="evenodd" clip-rule="evenodd" d="M13.2313 0C5.91473 0 0 5.95833 0 13.3296C0 19.2219 3.78977 24.2095 9.04719 25.9748C9.7045 26.1075 9.94527 25.688 9.94527 25.3351C9.94527 25.0261 9.9236 23.9669 9.9236 22.8632C6.24298 23.6578 5.47652 21.2742 5.47652 21.2742C4.88502 19.7294 4.0086 19.3324 4.0086 19.3324C2.80394 18.5158 4.09635 18.5158 4.09635 18.5158C5.43265 18.6041 6.13383 19.884 6.13383 19.884C7.31656 21.9142 9.22242 21.3406 9.98915 20.9874C10.0986 20.1267 10.4493 19.5309 10.8217 19.1999C7.88613 18.8909 4.79754 17.7434 4.79754 12.6233C4.79754 11.1667 5.32296 9.97506 6.1555 9.04827C6.02415 8.71731 5.564 7.34879 6.28713 5.51715C6.28713 5.51715 7.40431 5.16398 9.92333 6.8854C11.0018 6.59362 12.114 6.44519 13.2313 6.44394C14.3485 6.44394 15.4873 6.59858 16.539 6.8854C19.0583 5.16398 20.1755 5.51715 20.1755 5.51715C20.8986 7.34879 20.4382 8.71731 20.3068 9.04827C21.1613 9.97506 21.665 11.1667 21.665 12.6233C21.665 17.7434 18.5765 18.8687 15.619 19.1999C16.101 19.6192 16.517 20.4135 16.517 21.6715C16.517 23.459 16.4954 24.8936 16.4954 25.3348C16.4954 25.688 16.7364 26.1075 17.3935 25.9751C22.6509 24.2093 26.4406 19.2219 26.4406 13.3296C26.4623 5.95833 20.5259 0 13.2313 0Z" fill="white"/>
</g>
<defs>
<clipPath id="clip0_17_719">
<rect width="26.5417" height="26" fill="white"/>
</clipPath>
</defs>
</svg>
